<svg viewBox="0 812 2000 408" xmlns="http://www.w3.org/2000/svg"><g fill="#fff"><path d="m1389.8 879.4c29.2-5.9 62.3-1.2 85.5 18.7 17.7 14.8 26.6 37.9 27.8 60.5 1.6 35.1-10 71.7-35.4 96.6-21 20.2-50.2 31.5-79.3 29.9-30.1 1.4-62.3-12.1-77.7-39-16.7-29.3-14.3-65.6-3.5-96.5 12.7-35.7 45.1-63.8 82.6-70.2zm0 46c-21.7 7.4-36.8 28-40.8 50.1-4.8 18.2-3.1 40.2 11.4 53.7 20.8 17.2 54.2 13.6 72.8-5.3 15.2-14 21.7-35.1 21.9-55.2-.2-13.9-4.6-28.8-16.1-37.5-13.8-10.6-33-9.9-49.2-5.8z"/><path d="m766 880.4c41.9-.6 83.7-.1 125.6-.3-2.2 13.1-4.9 26.2-6.5 39.5-25.8 0-51.6 0-77.4 0-2.5 14.2-4.9 28.5-7.2 42.7 22.7-.1 45.5-.1 68.2 0-2.1 12.2-4.4 24.4-6.4 36.7-22.9-.1-45.7.1-68.6-.1-2.7 15.1-5 30.4-7.9 45.5 25.8-.2 51.6 0 77.5-.1-2.8 13.1-4.9 26.3-7 39.5-42-.1-83.9 0-125.9 0 12.1-67.7 23.7-135.6 35.6-203.4z"/><path d="m1147.3 880.1c26.6.1 53.2 0 79.8 0 17.4.5 36.5 3.6 49.4 16.5 13.6 13.4 16.3 34.6 11.6 52.5-5.4 27.7-27.2 51-54.2 58.7-19.8 6.3-40.7 4-61.1 4.4-4.2 23.8-8.5 47.6-12.6 71.5-16.2.3-32.4.1-48.7.1 12.2-67.8 23.6-135.8 35.8-203.7zm41.5 39.5c-3.3 17.9-6.1 35.9-9.5 53.8 17.4-.8 38.4 3.7 52.1-9.7 10-11.2 13.6-34.3-2.6-41.7-12.8-4.1-26.7-1.9-40-2.4z"/><path d="m1512.2 1083.9c12.5-67.9 23.5-136 36.1-203.9 29.9.3 59.9-.3 89.8.3 20.6.9 43.7 9.1 52.5 29.4 11.9 28.2-.4 63.3-25 80.7-8.8 6.6-19.2 10.4-29.7 13.4 11.6 26.6 22.9 53.3 34.1 80-17.9.1-35.7.2-53.7-.1-9.9-25.9-20.3-51.6-30.4-77.5-3.9 0-7.7 0-11.6 0-4.3 25.9-9.2 51.6-13.4 77.5-16.2.3-32.5.1-48.7.2zm77.7-163.2c-3.6 17.5-6.5 35.2-9.9 52.7 14.6-.6 29.5 1.7 43.9-1.6 18.7-4.1 27.9-32.3 14.2-45.9-14.6-8.2-32.2-4.2-48.2-5.2z"/><path d="m1711.9 919.6c2.2-13.2 4.4-26.4 7.2-39.5 52.6.2 105.3 0 157.9.1-2.1 13.1-4.6 26.2-6.7 39.4-18.3.1-36.6.1-54.9 0-10 54.7-19.3 109.6-28.8 164.4-16.3-.1-32.5 0-48.7-.1 9.3-54.8 19.3-109.4 28.4-164.3-18.3 0-36.4 0-54.4 0z"/><path d="m148.4 934.8c19.4-32.5 55.2-55.5 93.4-56 24.1-1.4 50.4 3.9 67.8 21.9 14.4 13.8 19.6 33.8 21.8 52.9-17 .1-34-.1-51 .1-3.7-9.8-8.6-20-18.4-25.1-18-9.2-41.8-6.7-56.9 7-20.9 17.4-28.7 46.7-25.2 73 2.2 17.1 17.6 31.2 34.9 31.5 22.4 2 43.7-11 55.3-29.7 17 .1 33.9.1 50.9 0-14.2 35.4-45.3 64.4-83.2 72.1-26.2 5-56 4.1-78.4-12.2-17.9-12.6-28.3-33.8-30.1-55.3-2.1-27.8 5-56.2 19.1-80.2z"/><path d="m582.1 880.3c26.6-.3 53.3 0 79.9-.2 17.1.1 35.6 2.2 49.5 13.1 12.8 9.9 19 26.8 17.4 42.7-.8 33.1-27.3 61.3-59.1 67.8 11.8 26.5 22.7 53.3 34.3 79.9-17.9.4-35.7.4-53.6 0-9.8-25.9-20.4-51.4-30.2-77.3-3.9-.1-7.9-.1-11.8-.2-4.4 26-9.1 51.9-13.6 77.8-16.1 0-32.3-.1-48.4-.1 12.1-67.8 23.7-135.7 35.6-203.5zm41.8 40.3c-3.6 17.6-6.4 35.3-10 52.9 14.7-.5 29.8 1.7 44.3-1.7 18.6-4.3 27.8-32.6 13.8-46-14.4-8.3-32.1-4.1-48.1-5.2z"/><path d="m321.6 1083.8c36.7-67.1 73.1-134.3 109.5-201.5 18.9.2 37.7.1 56.6 0 12 67.3 25.8 134.2 38.1 201.4-17.1.3-34.1.2-51.2.1-1.7-12.5-3.9-24.9-5.8-37.4-25.7 0-51.3-.1-77 .1-5.9 12.6-12.7 24.7-18.7 37.4-17.1 0-34.3 0-51.5-.1zm89.5-74.1c17.2-.1 34.4 0 51.6 0-3.9-25.3-8-50.7-12.7-75.8-13.1 25.2-26 50.5-38.9 75.8z"/><path d="m923.9 880.1 45.6 95.8 43-51.5c.6-.7.7-1.6.3-2.4l-19.1-39c-1.4-2.9-4.4-4.7-7.6-4.6z"/><path d="m1066.7 878.2-235.1 285.6 72.6-1.4 96.8-124.7 21.9 44 69.7.1-47.2-100.7 79.6-101z"/><path d="m1052.7 1126.6c0-10.7-9.2-12.7-15.6-12.7-12 0-23.5 8.2-27.2 24.2-3.3 14.4-.3 25.4 16.1 25.4 5.8 0 16.4-2.6 22.8-16.8h8.7c-9 23.1-29.5 24.1-34.5 24.1-15 0-27.7-9-22.3-32.5 4.3-18.8 18.9-31.8 38.2-31.8 17 0 23.6 9.8 22.6 20z"/><path d="m1146.7 1170.9c-24.7 0-27.9-19-24.8-32.2 3-13.2 15-32.2 39.7-32.2s27.9 19 24.8 32.2-15 32.2-39.7 32.2zm13.2-57c-14.4 0-25.4 10.5-28.8 24.8-3.3 14.4 2.9 24.8 17.3 24.8s25.4-10.5 28.8-24.8c3.3-14.3-3-24.8-17.3-24.8z"/><path d="m1299.7 1169.3 8.3-36.1c.4-1.8 2.4-9.5 3.7-15.2h-.2l-30.4 51.3h-8.8l-6.8-51.2h-.2c-1.3 5.6-2.9 13.4-3.3 15.1l-8.3 36.1h-8.7l14.1-61.1h12.8l7 51.6h.2l30.7-51.6h12.7l-14.1 61.1z"/><path d="m1387.1 1169.3h-8.9l14.1-61.1h29.8c12.3 0 17.9 7.3 15.7 17.2-2 8.5-9.4 18.1-23.8 18.1h-21zm7.6-32.9h17.8c8 0 14.1-2.7 16-11 1.8-7.7-3.4-10.2-10.7-10.2h-18.2z"/><path d="m1497.4 1151.5-11 17.8h-9.2l39-61.1h10.1l9.9 61.1h-9.8l-2.4-17.8zm25-7.3-3.6-26.9h-.2l-16.8 26.9z"/><path d="m1657.6 1108.2h8.7l-14.1 61.1h-10l-22.3-49.3h-.2l-11.4 49.3h-8.7l14.1-61.1h10.6l21.7 49.3h.2z"/><path d="m1749.6 1169.3h-8.9l5.7-24.6-16.6-36.5h10.4l12.2 29.3 25.7-29.3h10.5l-33.4 36.5z"/></g></svg>