<svg enable-background="new 0 572 2000 852" viewBox="0 572 2000 852" xmlns="http://www.w3.org/2000/svg"><g fill="#fff"><path d="m884 638.5c77.3-4.2 154.7-3.8 232-.2-16.8 7.9-32.6 17.8-46.4 30.3-46.5-1.5-93.2-1.6-139.7 0-13.6-12.4-29.3-22.3-45.9-30.1z"/><path d="m699.2 646.1c55.2-4.8 112.6-3.1 165 16.7 29.9 11.3 57.8 33 69.4 63.7 13.2 35.5 6.5 76-12 108.3-22.9 40.9-62 71.2-105.3 88.3-41.7 16.7-87.3 21.4-132 19.1-53.2-1.6-107.1-7.9-157.4-26.3-31.3-11.8-62.6-29-81.9-57.1-20.3-28.8-20.3-69.5-1.4-98.9 18.7-30 49.2-50.3 80.3-65.8 55.1-26.6 115.1-41.2 175.3-48zm-5.5 32.8c-46.7 6-92.8 17.4-136.3 35.5-26.2 11.4-52.3 25.1-72.6 45.6-12.7 12.9-22.6 29.7-23.1 48.2.1 19.9 11.7 38.2 27 50.4 22.7 18.4 50.7 28.6 78.5 36.1 48.4 12.3 98.6 16.3 148.3 15.9 42-.9 84.7-10.5 120.6-33 33.4-20.4 61.2-52.7 70.2-91.3 6.1-24.3.7-52.1-17.1-70.1-19.9-20.6-48.5-29.4-75.9-34.7-39.4-7-79.9-7.8-119.6-2.6z"/><path d="m1191.4 648.2c73.5-10.9 148.6-.9 219.3 20.5 44.7 14.2 89.7 33 124.2 65.6 22.7 21.4 38.2 52.4 34.2 84.1-3 32.5-26.1 59.2-52.9 76-44 27.4-95.8 38.3-146.7 44.1-64.1 6.4-131.6 8.7-191.9-17.6-49.2-20.8-92.8-59.6-111-110.6-13-36.8-10.4-82 16.3-112.2 27.3-30.9 68.9-43.7 108.5-49.9zm13.9 30.4c-33 4.3-67.9 12.1-92.9 35.4-20.2 19-26 49.4-18.5 75.5 12.4 46.5 50.7 82.2 93.9 101.1 44 19.8 93.2 22.2 140.7 19.2 50.6-2.9 102-9.8 148.6-30.5 23.4-11 47.5-26.7 57.2-51.8 8.6-22-.5-46.9-16.1-63.4-28-30.3-67.2-47-105.4-60.7-66.5-21.9-137.5-33.8-207.5-24.8z"/><path d="m459.3 1283.1c25.4-8.6 55.3 12.6 53.3 39.9 1.5 23.7-21.1 43.9-44.4 41.3-21.2-.6-39.8-20.1-38-41.5-1.3-17.9 11.7-35.4 29.1-39.7zm0 13.4c-20.6 8.7-22 41.2-2.5 51.8 17 10.4 41.7-1.6 42.8-21.8 3.6-21.6-20.8-39.9-40.3-30z"/><path d="m591.9 1283.2c14.9.1 29.8-.9 44.6.4 22.6 4.2 27.7 38 9.8 50.7-12.1 8.7-27.7 4.6-41.6 5.5v23.7c-3.1 0-9.6 0-12.7 0-.1-26.7.2-53.5-.1-80.3zm12.9 45.6c9.8-.3 19.9 1.3 29.4-2 12.5-5.4 12.5-25.6 0-30.9-9.3-3.1-19.5-1.5-29.2-2-.4 11.7-.4 23.2-.2 34.9z"/><path d="m725 1283h68.4c0 2.7.1 8.3.1 11-8.9 0-17.8 0-26.8-.2-.7 23.2-.2 46.4-.3 69.6-4.3 0-8.5 0-12.7 0 .1-23.1 0-46.2.1-69.3-9.7-.2-19.2-.2-28.9-.2.1-2.6.1-8 .1-10.9z"/><path d="m868.8 1283.1c4.2 0 8.4-.1 12.7-.1.1 26.8 0 53.6 0 80.4-4.3 0-8.5 0-12.7 0 .1-26.7 0-53.5 0-80.3z"/><path d="m979 1288.3c17-11.4 40.5-7.9 55.7 4.9-2.1 3.3-4.2 6.6-6.3 10-11.2-8.6-27.1-13.1-40.1-5.7-17.4 9.8-18.5 37.8-2.2 49.2 12.9 9 30.8 5.1 42.3-4.2 2.1 3.3 4.3 6.5 6.4 9.8-16.2 14.7-42.8 16.6-59.8 2.3-20.1-16.6-18.7-52.7 4-66.3z"/><path d="m1112.6 1283.1c4.2 0 8.4-.1 12.7-.1.1 26.8 0 53.6 0 80.4-4.3 0-8.5 0-12.7 0 0-26.7 0-53.5 0-80.3z"/><path d="m1232.4 1283.2c5.2-.1 10.4-.1 15.6-.1 10.2 27 21.4 53.5 31.7 80.5-4.7-.2-9.3-.4-14-.6-2.2-5.9-4.5-11.8-7-17.5-12.8.4-25.6.2-38.5.2-2.4 5.9-4.9 11.9-7.3 17.7-4.5 0-9 0-13.5 0 10.9-26.7 22.3-53.3 33-80.2zm7.2 15.2c-5.2 12.4-10.4 24.8-15.6 37.2 10.6.2 21.2.2 31.7-.1-5.9-12.3-8.8-25.8-16.1-37.1z"/><path d="m1354.7 1282.7c5.2.6 12.2-1 15.3 4.7 15.2 18.1 30.2 36.3 45.5 54.3.1-19.6-.1-39.2.2-58.8 4.5.1 8.9.1 13.4.2v80.3c-4 0-8-.1-11.9-.1-16.5-19.6-32.6-39.7-49.9-58.7-.3 19.5-.1 39.2-.1 58.8-3.1 0-9.6 0-12.7 0 .2-26.8.1-53.8.2-80.7z"/><path d="m1518.7 1286.4c15.3-8.1 33.9-4.8 49.3 1.4-.9 3-2.8 9.1-3.7 12.2-11.1-4.5-23.8-8.4-35.7-4.4-5.9 1.7-9.4 9.4-4.6 14.1 12.1 7.8 28.2 5.9 39.6 15.1 10.2 8.6 7.2 26.3-3.6 33.3-15.5 10.2-35.6 6.6-51.8-.4.8-3.3 2.4-9.7 3.1-12.9 13.9 7.9 39.3 14 46.2-5.5-10.4-15.2-33-8.2-44.9-21.3-8-9.4-4.9-25.9 6.1-31.6z"/><path d="m1546 917.4c5.7-4.5 13.1-2.4 19.6-1.3 6.9 9.8 5.2 25.5-9 27.4.8-2.1 2.5-6.3 3.4-8.3 10.1.8 3.7-13 2.6-17.6-3 4-5.6 8.3-8.3 12.5l8.6 1c-5.9 8.9-15.9 2.7-15.3-6.3l6.5-1.6c-2.1-1.7-4.2-3.3-6.3-4.8-2.7 6.3-4.7 19.1 6.3 18.6-2.2 1.6-4.3 3.1-6.4 4.7-1.6-2.2-4.7-6.5-6.2-8.6.5-5.3 0-11.7 4.5-15.7z"/><path d="m642.2 1070c28.9-13.3 63.2-7.9 91.4 4.4-3.1 9.8-6.2 19.5-9 29.4-20.1-8.9-43.6-16.8-65.1-8.9-8.9 3.4-10.1 17.2-.7 20.9 21.5 9.3 47.1 9.9 65.8 25.2 19.8 17.2 15 52.4-7 65.6-29.6 19.2-68.3 12.8-98.8-.9 2.6-10.4 5.2-20.9 7.7-31.3 19.8 12 44.9 19.7 67.6 11.5 9.6-2.5 13.9-16.8 5.1-22.8-21.2-12.7-49.7-8.9-68.6-26.3-19.8-18.6-12.9-55.5 11.6-66.8z"/><path d="m1169.9 1086.4c30.2-32.5 86.6-31.7 118.5-2-5.1 7.5-10.3 14.9-15.1 22.5-17.7-12.8-41.9-19.9-63-11.4-21 8.3-31.9 33.2-27.4 54.7 2.8 16.4 14.6 31.4 30.9 36.2 20.4 6.2 42.7-.3 59.5-12.7 4.9 7.7 10 15.2 15.1 22.9-21.1 18.9-51.2 26-78.8 19.9-26.7-5.5-49.9-26.1-57.4-52.5-7.8-26.5-2.2-57.6 17.7-77.6z"/><path d="m72.3 1064.7h74.5c18.3-.3 37.2 8.7 46.1 25.2 12.6 24.1 8.8 58.6-14.8 74.7-21.8 15.2-49.7 8.7-74.5 10.1 0 13.8-.1 27.5.1 41.3-10.3-.4-21.3 1.8-31.2-.7-.5-50.3-.1-100.5-.2-150.6zm31.3 27.9v54.1c15.7-.9 32.2 2.5 47.6-2.5 21.8-8 20.4-44.4-2.3-50.4-15-2.7-30.3-.6-45.3-1.2z"/><path d="m255.8 1065c40.2-.5 80.3-.4 120.5-.1-.1 9.2-.2 18.4-.1 27.7-29.9.1-59.8 0-89.8.1.1 10.6 0 21.3-.1 31.9 24.5.3 48.9.4 73.4-.1.5 9.4.5 18.8.4 28.2-24.6 0-49.1-.2-73.7.1.1 11.8.1 23.6.1 35.4 29.9.1 59.8 0 89.8 0 0 9.3 0 18.8-.3 28.1-40-.5-79.9 0-119.9-.3-.2-50.2.1-100.6-.3-151z"/><path d="m437.1 1064.7c25 .1 50.1-.3 75.2.1 18.1.8 38.8 7.5 47.1 25.1 8.5 18.5 6.7 43.4-8.9 57.6-6.6 7-16 10.4-24.8 13.5 15.7 16.1 30.9 32.5 46.6 48.5.1 1.7.3 5 .5 6.7-11.8 0-23.5 0-35.4.1-17.2-18-33.6-36.5-50.9-54.4-5.8.1-11.5.2-17.2.3.1 18 .1 36 0 54-10.7 0-21.4 0-32.1 0-.1-50.5-.1-101-.1-151.5zm32.1 28c.1 14.6.1 29.3 0 43.9 16.2-.8 32.8 2.2 48.5-1.9 17.6-5.8 18-34.4.3-40.4-15.9-3.6-32.5-.9-48.8-1.6z"/><path d="m796 1064.7c25.1 0 50.2-.1 75.3 0 18.4 0 37.7 8.8 46.2 25.7 12 24.1 8.2 58.1-15.2 74-21.6 15.3-49.4 8.8-74.1 10.2 0 13.8 0 27.5.1 41.3-10.8.2-21.5.2-32.2 0 0-50.2-.1-100.7-.1-151.2zm32.1 27.9v54.1c15.7-.9 32.2 2.5 47.6-2.5 21.4-8.6 20.1-44.4-2.5-50.5-14.9-2.5-30-.5-45.1-1.1z"/><path d="m980.6 1064.7c40.1 0 80.1-.1 120.2.1-.1 9.2-.1 18.5 0 27.8-29.9.1-59.9-.1-89.9.1.1 10.7.1 21.4 0 32 24.6.3 49.2-.2 73.8.3-.2 9.2-.2 18.5-.2 27.7-24.6-.1-49-.1-73.6 0v35.5c29.9.2 59.8 0 89.8.1.1 9.4 0 18.8-.4 28.2-39.9-.6-79.9 0-119.8-.3.1-50.5.1-101 .1-151.5z"/><path d="m1330.3 1092.7c-.2-9.3-.2-18.7.1-28 43.4.2 86.7 0 130.2.1v27.9c-16.1 0-32.1 0-48.3 0 0 41.2-.1 82.3 0 123.6-10.8.1-21.5.1-32.2 0 .1-41.2 0-82.3 0-123.6-16.7-.1-33.3-.2-49.8 0z"/><path d="m1514.7 1064.7h31.3c.1 50.5 0 100.9.1 151.4-10.5.1-21 .1-31.4 0 0-50.4-.1-100.9 0-151.4z"/><path d="m1598.1 1064.8c11.7-.1 23.2-.1 34.9-.1 14.8 40 28.4 80.3 43.6 120.2 15.4-39.9 29.8-80.1 45-120.2h35c-19.6 50.6-40.2 100.8-59.7 151.3-13.4.3-26.9.2-40.2.2-19.7-50.5-39.4-100.8-58.6-151.4z"/><path d="m1807.6 1064.7h120.2v27.9c-29.9 0-59.8 0-89.8 0v32.1c24.6.1 49.1-.1 73.7.1-.1 9.2-.1 18.6-.1 27.8-24.6 0-49 0-73.5 0-.2 11.9-.2 23.7.1 35.7 29.8-.2 59.6 0 89.5-.1v27.9c-40.1 0-80.1 0-120.2 0 .1-50.4.1-100.9.1-151.4z"/></g></svg>