<svg enable-background="new 0 654.4 2000 672.8" viewBox="0 654.4 2000 672.8" xmlns="http://www.w3.org/2000/svg"><g fill="#fff"><path d="m61.7 729.3c68.3.1 136.6-.4 204.9.2-7.4 11.2-16.4 21-24.8 31.5-16.6 21-33.3 42-50.2 62.8-6.8 7.8-17.3.6-24-3.9-11.6-8.7-30.1-8-39 4.3-19.2 24.1-38.8 47.9-57.1 72.6-4.8 4.4 1.2 9.3 4.6 12.3 22.2 17.8 44.7 35.1 66.6 53.1 3.9 2.8 8.3 7.4 13.5 5 3-2.5 5.5-5.7 7.8-8.8 16.4-21.9 34.3-42.6 50.6-64.6 6.3-8 7.2-19.4 3.6-28.7-3.8-9.7-14.6-14.3-18.4-23.9-2.1-3.9 1.5-7.4 3.5-10.4 24.6-31.7 50-62.7 74.4-94.6 2.6-2.8 4.7-7.3 9.2-6.8 8.3-.4 16.7.1 25 0v247.9c-83.4.2-166.8-.1-250.2.1.2-82.8.1-165.6 0-248.1z"/><path d="m330.2 729.3c83.6-.4 167.2-.1 250.9-.1v248c-83.6-.1-167.3.2-250.9-.1.2-82.6.2-165.3 0-247.8zm41.3 39.5c-7.6 6.5-8.5 19.8-1.1 26.9 15.3 15.6 31.5 30.4 47.4 45.6-2.9 14.7-10 28.5-10.3 43.6 3.9.1 7.8.2 11.6.2 3.6-13.9 4.8-30.7 17.5-39.7 1.6 3.5 6.4 6.9 3.9 11.1-5.5 12.1-10.8 25.4-7.6 38.9 2.7 18.5 16.5 34.4 33.8 40.9 26 10.2 58.2-4.7 67.4-31.1 11.6-27.5-5.5-62.8-34.7-70-16.4-5.5-33.4.6-48 8.1-2.7-3.1-5.4-6.2-8.1-9.4 13.4-6.3 27.6-10.6 41.4-15.9-.9-3.5-1.7-7-2.8-10.3-12.5 0-23.6 7.4-35.8 9.7-4.4 1.2-7.5-2.7-10.3-5.3-12.4-12.6-24.7-25.4-37.5-37.6-6.7-6.6-17.9-10.5-26.8-5.7z"/><path d="m635.8 730c47.3-.8 94.6-1 141.9 0 24.8 1.8 50.3 4.4 73.2 15.1 32.3 17 50.9 53.7 51.1 89.5.6-4.8 1.2-9.6 1.9-14.3-1.2 11.7-1.5 23.5-.1 35.3-.6-4-1.2-7.9-1.9-11.9-.1 26-9.8 51.9-27.1 71.4-19.5 20.3-47.8 28.2-75 31.4-22.5 4.1-45.4-.4-68 2.7-.8 28.3-.3 56.7-.4 85-.2 13.4.8 26.9-1.2 40.2-31.5.7-63.1.8-94.5 0 .3-114.8-.1-229.6.1-344.4zm96.8 77.5c-3.9 11-2.5 22.7-2.6 34.1 0 11.1-.5 22.3 1.1 33.4 18.4 1 37 1 55.2-2.1 14.1-2.6 21.4-18 20.8-31.2 1.2-13.2-5.5-27.7-19-31.4-18-4.8-37-2.5-55.5-2.8z"/><path d="m941.2 729.7c31.3-.2 62.6-.6 93.8.3 1.2 84.1.2 168.3.5 252.4-.4 30.8.7 61.5-.6 92.3-31.3.2-62.5-.2-93.8.3 0-115.2-.1-230.2.1-345.3z"/><path d="m1084.4 729.9c82.2.4 164.4.2 246.5.1-.6 13.6 0 27.3.5 41 .1 10.8.7 22.4-4.8 32.1-6.8 12.4-16.4 22.8-24.3 34.4-29.2 42.1-58.7 83.9-87.6 126.1-6.6 9.7-14.2 18.8-19.2 29.4 33 1.1 66.1.3 99.2.5 13.3.3 26.9-1.2 40.1 1.3 1.7 26.4.9 53 .4 79.4-37.7 1.6-75.5.3-113.3.6-49.2-.2-98.4.3-147.5-.3-1.6-16.6-.7-33.2-.9-49.8.3-7.5-.8-16 3.9-22.5 31.3-44.5 62.7-89 94.2-133.4 13.5-20 28.5-39 41.2-59.5-42.8-.7-85.7.6-128.5-.7.4-26.2.1-52.4.1-78.7z"/><path d="m1724.1 730.3c22.8-1.5 45.7-.1 68.6-.6 10.4.3 20.9-1.2 31.2.9 2 2.9 3.1 6.2 4.2 9.4 31.1 109.9 62.9 219.7 94.3 329.5 2.1 4.3-4.4 5.7-7.4 5.4-27.4-.2-54.8.2-82.2-.2-8.3-.4-8.2-10.3-10.3-16.2-4.9-17-7.4-34.9-14.6-51-14.3-2.1-28.8-.3-43.2-.8-13.6.5-27.4-1.1-40.9.8-10.9 20.2-10.9 44.8-21.8 65.1-6.1 3-13 2.2-19.5 2.4-18.3-.2-36.7.3-55-.4 2.2-13 6.4-25.4 9.8-38.1 27.4-96.3 54.4-192.7 81.8-289 1.3-6 3.1-11.6 5-17.2zm34.2 123.9c-6.1 26.1-13.7 51.8-19.3 78 17.1.1 34.1 0 51.2.1-.7-7.8-1.8-15.6-4-23.1-7.5-25.6-12.3-51.9-20.7-77.2-3.2 7.1-5.4 14.6-7.2 22.2z"/><path d="m1363.6 730.4c82-.7 164-.4 246-.2.6 16.7 0 33.5.3 50.2-.2 6.4.4 13.4-2.7 19.2-40.1 57.7-80.4 115.4-120.4 173.2-4.6 6.3-9 12.8-12.5 19.8 46.4.7 92.8.3 139.3.2.3 22.4-.4 44.9 0 67.3.2 5-.6 10-1.9 14.9-69.7-.3-139.4-.2-209-.2-16.6-.4-33.1.8-49.7-.4-1.9-18.8-.6-37.9-.8-56.9-.5-7.4 2.9-14 7-19.9 41.3-58.2 82.2-116.7 123.6-174.7 3-4.2 5.4-8.7 7.7-13.3-42.3-1.1-84.6.7-126.8-.9-.1-26.2 0-52.2-.1-78.3z"/><path d="m126 851.3c2.6-9.2 8.2-19.2 17.9-22.2-3.8 9-9.9 16.9-17.9 22.2z"/><path d="m138.5 861.3c2.6-9.3 8.4-18.4 17.5-22.6-2.4 9.6-9 17.8-17.5 22.6z"/><path d="m449.5 849c3.9.5 6.2 4 8.9 6.5 6 6.4 12.7 12.3 17.6 19.6.1 1.4.2 4.1.3 5.5-10.1-7.1-18.7-16.1-27.5-24.8-2.4-2-1.4-5.3.7-6.8z"/><path d="m150.4 870.8c4.4-8.4 9.3-18.4 19.1-21.4-3.9 8.9-9.1 18.8-19.1 21.4z"/><path d="m104.9 877.3c3-9.1 8.5-18.7 18-22.1-3.3 9-8.8 18.1-18 22.1z"/><path d="m164.2 881.8c1.5-9.8 9.1-17.3 17.1-22.4-2.4 9.3-8.2 18.2-17.1 22.4z"/><path d="m132 865.6c1 .5 3.1 1.5 4.1 2-5.3 7.3-9.9 16-18.6 19.8 2.3-8.7 8.9-15.1 14.5-21.8z"/><path d="m176.1 891.2c4.2-8.8 9.9-17.9 19.2-21.9-3.5 9.2-9.5 18.4-19.2 21.9z"/><path d="m129.4 897.8c3.7-9.1 9.9-17.8 19-22-3.2 9.3-9.4 18.5-19 22z"/><path d="m190.1 902.8c1.5-10.3 9.2-18.5 17.7-23.9-2.6 9.9-9.9 17.7-17.7 23.9z"/><path d="m84.1 903.1c3.4-8.8 8.5-17.7 17.4-22-1.4 9.7-8.7 18-17.4 22z"/><path d="m143.2 908.1c2.4-9.3 8.8-17.6 17.1-22.4-1.6 9.6-8.4 18.1-17.1 22.4z"/><path d="m107.1 896.7c1.9-2.8 5.5-3 8.4-4-4.3 8.5-10.4 16-17.6 22.2-1.3-7.6 5-12.9 9.2-18.2z"/><path d="m155.6 919.1c2.5-10 9.6-18.6 18.4-23.9-2.5 10.1-9.6 18.8-18.4 23.9z"/><path d="m109.8 923.8c3.1-9 8.6-18.2 17.9-21.9-3.2 9.2-9 17.8-17.9 21.9z"/><path d="m169.3 928.8c1.6-9.7 8.6-18 17.1-22.6-2.5 9.4-9.2 17.4-17.1 22.6z"/><path d="m134.8 915.1c1.6-2.1 4.4-1.6 6.7-1.8-5.3 7.7-9.9 17.3-19.3 20.7 2.5-7.3 7.2-13.7 12.6-18.9z"/><path d="m134.3 942.6c5.1-7.6 10.7-15 17.5-21.1 1.5 9.8-8.5 15.6-13.2 23-1.1-.5-3.2-1.4-4.3-1.9z"/><path d="m147.8 954.8c3-9.2 8.9-18 17.9-22.2-2.9 9.2-8.7 18.2-17.9 22.2z"/><path d="m61.7 996.3c67.2-.6 134.4-.1 201.6-.2 16.2.2 32.4-.7 48.6.9 0 82.6-.1 165.3 0 247.9-83.4 0-166.8 0-250.2 0 0-83 .2-165.7 0-248.6zm10 53.8c-.1 43.5.1 86.9-.1 130.4 75.9.6 151.8.4 227.7.1.2-43.6 0-87.2 0-130.8-75.9.1-151.7-.4-227.6.3z"/><path d="m496.1 1058.8c.1-.1.3-.2.4-.3 1.1-.8 2.5-.8 3.6-.2.3.2.6.4 1 .6 1.1.6 1.4 2 .9 3.1v.1c-1.2 2.3-4.3 2.8-6.1.9 0 0 0 0-.1-.1-1.2-1.2-1-3.1.3-4.1z"/><path d="m98.4 1067.4c53.2.1 106.5 0 159.7 0-.3 15-.4 30 0 45.1-53.2.5-106.5.4-159.7 0-.3-14.9 0-30.1 0-45.1zm3.7 2.9c0 12.9-.1 25.8-.1 38.7 13.8 1.2 27.7.5 41.5.7 37.1-.1 74.2.3 111.3-.3.4-13 .6-26.1-.1-39.1-50.8.3-101.7.1-152.6 0z"/><path d="m81 1080.8c-1.3-3.4 1.9-4.5 4.5-5.8.9-.5 2.1.1 2.2 1.1.3 1.9.7 3.8.9 5.7.2 1.6-1.2 3-2.8 2.9-2.6-.4-5.3-.5-4.8-3.9z"/><path d="m106.6 1075.2c47.4 0 94.7.2 142.1-.1 0 .7.1 2.1.1 2.8-47.4-.1-94.8.1-142.3-.1 0-.6.1-2 .1-2.6z"/><path d="m106.6 1124.4c47.4 0 94.7.2 142.1-.1 0 .7.1 2.1.1 2.8-47.4-.1-94.8.1-142.3-.1 0-.6.1-1.8.1-2.6z"/><path d="m263.9 1074.8c9.4-.1 18.8-.1 28.1 0 .3 12 .3 24-.1 36.1-9.3.2-18.6.3-27.9.2.1-12.2.1-24.3-.1-36.3zm7.6 9.6c-3 3.3-3.4 8.9 0 12.2 4.9 5.4 15.8 1.7 14.9-6.1.8-7.9-9.9-11.4-14.9-6.1z"/><path d="m116.4 1083.4c41.3-1.2 82.7-.4 124.1-.4.1 6.2.1 12.4-.1 18.6-41.4.3-82.7.2-124.1 0 .1-6 .1-12 .1-18.2z"/><path d="m98.4 1117.3c53 .1 106-.2 159 .1-.2 15-.2 30 .1 45.1-53.1-.1-106.2-.2-159.3.1-.4-15-.6-30.3.2-45.3zm3.1 2.9c-1.1 13.1-.7 26.2-.6 39.4 51.2.4 102.4.3 153.6 0 .3-13.1.4-26.1 0-39.2-51-.6-102-.2-153-.2z"/><path d="m84.4 1128.9c-1.5.3-3-.8-3-2.4-.2-3.4-.7-7.3 3.5-6.8 4.7-.9 5.3 5.7 2.9 8.4-1.2.3-2.3.7-3.4.8z"/><path d="m264 1119.4c9.3.2 18.6.1 27.8.1.4 12.4.6 24.7.3 37.1-9.4.2-18.7.2-28.1-.1 0-12.2.1-24.7 0-37.1zm9.8 7.4c-8.2 3-5.1 17.1 3.7 16.4 6.4.8 10.4-6.3 8.4-11.8-1.1-5.6-7.7-5.3-12.1-4.6z"/><path d="m395.5 1121.7c4.1 0 8.2.1 12.3.2-.2 4-.3 7.9-.4 11.9-3.9.2-7.9.3-11.8.5-.1-4.2-.1-8.5-.1-12.6zm2.8 4.5c-2.6 3.2 2.8 7.9 5.2 4.1 2.7-3.4-2.7-8-5.2-4.1z"/><path d="m115.1 1131.4c41.4-.1 82.9.1 124.4-.1-.1 6.5-.3 12.9-.5 19.3-41.4.2-82.7-.1-124.1.2-.2-6.4-.2-12.9.2-19.4z"/><path d="m1891.4 1116.4c10.4-11.3 27.3-9.7 40.4-4.9 0 5.9.1 11.8.2 17.7-6.7-2.6-14.1-7-21.4-3.9-11.7 5.1-12.7 21.8-5.4 31 11.7 15.5 30.5 27.2 33.1 48v12.1c-1.9 9.4-5.6 19.2-13.9 24.7-10.9 8.2-26.1 6.4-37.3-.2-.1-6-.2-12-.4-18 7.5 3.5 15.8 8.2 24.3 5 10.5-4.5 11.3-18.7 7.3-28-5.9-11.6-16.8-19.4-25-29.3-13.6-14.2-14.6-39-1.9-54.2z"/><path d="m610.7 1109.8c16.3.1 32.5 0 48.8 0-.1 5.1 0 10.1 0 15.2-10.1 0-20.3.1-30.4 0 .1 14.3 0 28.6 0 42.9 8.7-.1 17.5-.1 26.2.1.3 5.1.5 10.1.7 15.2-8.9.1-17.9.1-26.8 0v46.3c10.1 0 20.3-.1 30.4 0-.1 5.2-.1 10.3 0 15.5-16.3-.1-32.6 0-48.8 0-.1-45.1-.2-90.2-.1-135.2z"/><path d="m676.1 1136.4c2.1-11.2 8.3-23.3 20-26.8 13-4 30.1-1.6 37.5 11 7.4 12.1 8.1 26.7 9.4 40.4.6 23.5 1.9 48-6.9 70.4 3.8 5.1 7.6 10.3 11.2 15.6-3.9 2.7-7.8 5.3-11.7 7.9-3-4.3-6.1-8.5-9-12.8-12.6 6.3-29.7 6.7-40-4.1-9.6-10.7-11-25.7-12.6-39.4-1.5-20.7-1.8-41.7 2.1-62.2zm18.2 2.7c-2.8 18.1-2.1 36.5-1.7 54.8.8 10.2.5 21.1 5.4 30.4 3.7 6.4 12.1 6.2 18.1 3.6-3.9-5.8-8-11.5-11.9-17.4 3.5-2.9 7-5.7 10.6-8.5 2.6 3.4 5.1 6.8 7.9 10 2.8-23 2.6-46.6-.4-69.6-.7-8.1-5-18.9-14.9-17.9-8-.3-12.2 7.7-13.1 14.6z"/><path d="m761.9 1109.8h17.9c-.1 32.7-.1 65.5 0 98.3.5 6.4-.1 14 4.7 19.1 5.3 3 12 2.7 17.4 0 4.7-5.1 3.8-12.8 4.3-19.2 0-32.7.2-65.5-.1-98.3h18.1v98.4c-.2 9.2-.9 18.8-5.1 27.1-6.3 9.6-18.9 12-29.6 11.3-9.7-.3-19.9-5.2-24.1-14.3-3.3-8.4-3.4-17.6-3.4-26.5-.1-32 .1-63.9-.1-95.9z"/><path d="m844.8 1109.7c6 .1 12.1 0 18.1 0v135.3c-6 0-12-.1-18 0-.2-45.1-.1-90.2-.1-135.3z"/><path d="m883.9 1109.8c13 .5 26.5-1.6 39.2 2 11.9 3.6 17.2 16.5 17.7 27.9.7 12.5.3 26.9-8.9 36.6-7.5 8.3-19.6 7.7-29.7 8.8v59.8c-6.1 0-12.1 0-18.2 0-.1-45 0-90.1-.1-135.1zm18.2 14.5c-.1 15.1-.1 30.1 0 45.2 6.2-1 14.8-1 17.5-8 3.6-9.6 3.6-21.3-1.5-30.4-3.1-5.8-10.3-5.8-16-6.8z"/><path d="m961.1 1109.8c5.3 0 10.6 0 15.9.2 6.4 31.9 14.6 63.5 19 95.9 5-32.2 11.7-64 17.8-96h16.1c3.7 45.1 8.2 90.1 12.3 135.2-5.8 0-11.7 0-17.5 0-1.7-30-4.9-60-4.3-90.1-.3 0-.8-.1-1-.1-4.6 30.3-11.4 60.1-16.7 90.2-4.1 0-8.2 0-12.4.1-6.3-29.7-12.6-59.4-17.8-89.3-2 29.8-3.2 59.6-5.2 89.4-5.8 0-11.5-.1-17.2-.3 3.4-45.2 7.7-90.2 11-135.2z"/><path d="m1057.5 1109.8c16.1 0 32.2.1 48.3 0v15.2c-10.1.1-20.2 0-30.3.1v42.7c9-.1 18-.1 27.1.5-.1 5-.1 9.9-.1 14.9-9 0-17.9 0-26.8-.1-.1 15.4 0 30.9 0 46.3 10.1 0 20.1-.1 30.2 0 0 5.1 0 10.3.1 15.5-16.1.1-32.1.1-48.2 0-.3-45-.2-90.1-.3-135.1z"/><path d="m1122.3 1109.8h17c10.4 31.9 22.6 63.4 30.4 96.2-.1-14.3-2.7-28.4-2.6-42.7 0-17.8-.1-35.7.1-53.5 6 0 12.1 0 18.1-.1.1 45.1 0 90.2 0 135.3-5.6 0-11.3-.1-16.9-.1-10.5-32.1-22.6-63.7-30.5-96.5 1.3 32.1 1.8 64.3 2.4 96.5-6 0-12 0-17.9.1-.1-45.1-.1-90.2-.1-135.2z"/><path d="m1195.5 1109.8h59.6c0 5.2 0 10.5.1 15.7-6.9 0-13.8 0-20.6.4.2 39.7.1 79.4 0 119.2-6 0-12 0-18 .1-.1-39.7 0-79.5 0-119.2-7-.3-14.1-.3-21.1-.4-.1-5.4-.1-10.7 0-15.8z"/><path d="m1436.9 1115.3c10.6-10.1 26.7-8.4 39.3-3.6 0 6 .1 12 .2 18-6.5-3.5-14.2-7.6-21.6-4.2-10.7 4.4-12 18.9-7.1 28.1 9.5 14.5 25.4 24.2 32.2 40.5 5.7 15.9 3.3 36.7-11.3 47.1-10.9 8-26.1 6.5-37.2-.3-.1-6.2-.2-12.3-.3-18.4 7.2 4.3 15.8 8.7 24.4 5.5 9.4-4.5 11.2-17.3 7.7-26.3-5.3-12.7-17.1-20.8-25.6-31.2-14-14.4-14.6-40.4-.7-55.2z"/><path d="m1498.2 1109.8h17.8c.1 33.5 0 67.1.1 100.7.2 6 .3 13.1 5.2 17.3 5.1 1.7 11.1 2 16.1-.2 5.1-4.1 4.6-11.4 5.1-17.3.2-33.5-.2-67.1.2-100.6 5.8 0 11.7.1 17.6.1v98.2c-.5 9.9-.3 20.8-6.3 29.2-10.7 11.3-29.4 12-42.7 5.3-11-5.4-12.5-18.9-13-29.8-.3-34.4-.1-68.6-.1-102.9z"/><path d="m1580.9 1109.8c14.3.8 29.7-2.5 43.1 3.8 11.2 5.6 13.9 19.5 14.1 30.9.2 11.5-1.4 24.4-10 32.9-7.8 7-19 6.7-28.8 7.6 0 20-.1 40 0 59.9-6.2 0-12.3 0-18.5 0 0-45 .1-90.1.1-135.1zm18.5 14.6c-.1 15.1-.1 30.1 0 45.2 6.3-1 14.9-1.2 17.6-8.3 3.5-9.9 3.8-22.3-2.5-31.2-3.3-4.9-9.9-4.7-15.1-5.7z"/><path d="m1652.3 1109.8c13.1.6 26.6-1.6 39.4 2 11.6 3.9 17.1 16.6 17.5 28 .9 12.6.1 27-9.1 36.7-7.5 8.3-19.5 7.5-29.7 8.6-.3 19.9 0 39.9-.1 59.9-6 .1-12 0-17.9 0-.1-45.1.1-90.2-.1-135.2zm18.5 14.6c-.8 15-.5 30.1-.4 45.1 6.8-.7 16.1-1.4 18.4-9.3 2.6-9 2.6-19.4-1.4-28-3-6.3-10.5-7.3-16.6-7.8z"/><path d="m1723.5 1109.8h18c.2 39.9 0 79.8.1 119.6 9.9 0 19.7 0 29.6.1v15.5c-15.9 0-31.8-.1-47.7.1-.1-45.2-.2-90.3 0-135.3z"/><path d="m1782.7 1109.8c6 0 12.1 0 18.1-.1 0 45.1.1 90.2 0 135.3-6 0-12 0-18 0-.1-45.1-.1-90.2-.1-135.2z"/><path d="m1821.7 1109.8c16.1.1 32.2 0 48.4 0-.1 5.1-.1 10.1-.2 15.2-9.9 0-19.9 0-29.8 0 .1 14.3.1 28.5 0 42.8h26.6v15.3c-8.9 0-17.7.1-26.5 0 .1 15.4-.2 30.8.1 46.2 9.9.2 19.8.1 29.7.1 0 5.2-.1 10.4-.1 15.6-16.1-.1-32.2 0-48.2-.1.2-45 0-90.1 0-135.1z"/><path d="m1309.8 1133.8c6.9-17 32.5-19.7 44.3-6.5 6 7.2 6.3 17.5 3.9 26.2-3.6 10.3-11.7 18.1-18.8 26 6.2 9.5 11.6 19.5 18.2 28.8 3.4-5.2 7-10.3 10.5-15.3 3.9 2.9 7.8 5.9 11.7 8.9-4.7 6.9-9.7 13.6-14.5 20.4 4.8 7.6 9.7 15.1 14.6 22.6-6.8.1-13.6.1-20.3 0-1.9-3.5-3.9-7-6-10.4-9.3 10.7-26 15-38.3 7-13.2-7.6-18.4-24.8-14.1-38.9 2.9-10.1 10.2-18 17.1-25.6-6.8-12.9-14.3-28.6-8.3-43.2zm16 4.6c-4.5 9.3 2.4 19 6 27.5 6.5-7.1 14.9-15.2 12.5-25.9-1.5-8.8-15-9.2-18.5-1.6zm-9.1 74.3c0 7.7 5.1 16.2 13.2 17.5 6.6 1.4 11.5-4.1 16.2-7.8-6.5-10.5-12.7-21.2-19.3-31.6-5 6.3-10.6 13.3-10.1 21.9z"/><path d="m426.5 1087.9h28.3v-4h-24.3z"/><path d="m456.2 1087.9h33.4v-4h-33.4z"/><path d="m432 1082.6h22.8v-3.8h-19z"/><path d="m581 995c-83.6.1-167.2 0-250.8.1.2 83.2.1 166.5 0 249.7 83.6.2 167.1 0 250.7.1.2-83.3.2-166.6.1-249.9zm-197.3 16.3c2-5.6 8.7-4.6 13.4-4.9h99c5.1.3 12.9-.6 14.4 5.9 2.1 10.8.7 21.9 1.1 32.9-43.3-.4-86.6-.1-129.9-.1.5-11.3-2.2-23.3 2-33.8zm143.7 176.4c-3.4.2-6.8.4-10.1.5-1 7.7-1.1 15.5-.9 23.2-1.8.4-5.3 1-7 1.4-.2 4.8-.4 9.7-.5 14.6-6 .3-12.1.3-18.1.3-.1-4.8-.3-9.6-.3-14.4-29.3 0-58.5 0-87.8 0-.5 4.3-1 8.7-1.4 13.1-5.8 0-11.7 0-17.5.1.1-3.9.1-7.8.3-11.7-3.1-1.5-6.1-3-9.2-4.4 1.3-14.1 4.3-28 4.8-42.3.7-22.7 0-45.5 0-68.2.2-17-3.3-33.8-4.3-50.7 37-2.4 74.3-1 111.4-.8 9.8-.7 19.7-.9 29.5.5v25.3c-32.3 1.5-64.7.4-97 .6.4 34-.2 68.1.2 102.1 36.1 0 72.2-.2 108.4.1-.4 3.3-.4 7.1-.5 10.7zm6.8-98.4h-111.2l12.2-12h78.8zm-.4 52.8c-.5 10.3-5.8 20.1-14.8 25.5-10.8 7.9-24.7 5.8-37.2 6.1-13.7-.2-28.3 2.2-41-4.4-12.3-5.3-17.5-19.2-18.5-31.7-.4-15.3 0-30.6-.1-45.9 37.3-.5 74.6-.4 111.9-.1-.2 16.7.6 33.7-.3 50.5z"/><path d="m491 1078.8v3.8l29.2.1-6.6-3.9z"/><path d="m491 1087.9h38.1l-6.6-3.8-31.5-.2z"/><path d="m456.2 1082.6h33.4v-3.8h-33.4z"/></g></svg>