<svg viewBox="0 0 2000 1266.1" xmlns="http://www.w3.org/2000/svg"><g fill="#fff"><path d="m1534.5 471.2c15.5.1 31 0 46.4.1.4 56.5.1 113.1.2 169.7-.3 32.7.5 65.4-.4 98.1-15-.4-30.1 0-45.1-.2-3.2-5.2-.6-12.8-1.1-18.9-9.4 11-22.5 19.1-37 20.6-24.9 3.2-51.9-3.7-70-21.6-17.5-18-24.9-43.6-25.7-68.2-1.5-26.8 3.5-55.6 20.6-77.1 16.6-21.3 45-30.3 71.2-28.3 15.4.8 29.3 8.8 40.6 18.9.3-31.1-.3-62.1.3-93.1zm-48.2 115.2c-20.5 4.1-32.7 24.6-34.8 44.2-2.1 20.4.1 43.6 15 59.1 13.7 14.8 39.2 15.7 54 1.9 15.6-13.8 19.2-36.3 17.5-56.1-1.4-17.1-8-36.2-24-44.7-8.1-5.2-18.3-6.5-27.7-4.4z"/><path d="m1653.4 555.5c30.3-21.7 77.3-11.3 96.9 19.9-9.3 8.3-18.6 16.7-27.7 25.2-9.5-11.4-25.6-19.9-40.3-14.3-9.4 3.2-11.8 16.3-5.5 23.5 7 7.5 17.4 9.8 26.7 12.8 19.4 6.6 41.5 14.1 51.7 33.4 12.5 26.4-.1 60.8-25.5 74.7-16.9 10.1-37.7 11.8-56.6 7.4-24.7-6.5-45.6-25.1-56.2-48.2 11.7-8 24.9-13.6 37.1-20.8 4.8 10.5 10.9 21.7 21.6 27.1 8.8 5.2 20 5.4 29.5 2 9.8-3.3 13.8-16.2 9.4-25.2-4.9-7.6-14-10.4-22-13.5-16.6-6-34.4-11.3-47.6-23.7-11.9-11.1-15.9-28.3-14.1-44 2.4-14.3 10.7-27.9 22.6-36.3z"/><path d="m188.3 554.1c20.1-10.4 43.8-10.8 65.6-6.3 17.6 3.7 34.4 13.9 43 30.2 11.2 19.7 10.5 43.1 10.6 65 0 31.8.1 63.6-.1 95.4-12.6 0-25.2.3-37.7-.1-4.2-6.6-3.3-16.2-6.1-23.8-10.4 12.2-24.3 22.1-40.4 24.9-18.5 3.9-39.2 2.1-54.7-9.4-19.3-14.2-25.4-41.5-18.7-63.8 6.2-20.4 24.9-34.8 44.9-40.4 21.1-6.9 43.5-4 65.2-4.6.3-10.7-.5-23.4-9.8-30.3-10.9-7.3-25.3-7.6-37.7-4.6-9.7 2.7-15.5 11.6-19.7 20.1-12.6-3.2-25.4-5.3-38-8.6 4.1-18.6 16.4-35.3 33.6-43.7zm8.9 123.3c-2.8 10.2 4.1 21.9 14.8 23.6 11.6 1.4 23.9-1.9 33.2-9.1 10.4-7.4 15.9-20.5 14.7-33.1-13.4.2-26.9-.7-40.2.6-10.1.9-21 7.1-22.5 18z"/><path d="m1091.7 559.4c20.6-14.9 47.8-16.8 72.1-12.1 16.4 3.1 32.5 11.2 42.1 25.3 16.1 22.6 13.7 51.9 13.9 78.2.1 29.1-.1 58.1.1 87.2-12.9.9-25.8.2-38.7.3-1.6-8-3.3-16.1-4.6-24.2-12 14.5-29.3 24.7-48.2 26.5-21.4 2.9-45.8-3.7-58.5-22.2-14.1-21.4-13.9-52.7 3.7-72.2 14.5-16.4 36.7-23.4 57.9-24.9 13.5-.5 27-.1 40.5-.2 0-8.3 1.3-17.5-4.1-24.6-8.2-12.3-25-13.2-38.3-11.4-11.4 1.4-20.2 10.5-23.9 21-12.9-2.7-25.8-5.3-38.6-8.4 3.4-15 11.7-29.3 24.6-38.3zm22 109.1c-9.3 10.2-4.2 29.9 10 32.4 15.3 1.9 31.9-4.2 41.3-16.7 5.8-7.2 7.7-16.5 7-25.5-8.2 0-16.4 0-24.6 0-11.6 0-25.5.1-33.7 9.8z"/><path d="m1308.6 579.4c9.7-16.4 25.6-29.5 44.5-33.2 11.5-2.5 23.3-.9 34.5 2-2.2 14.5-5.4 28.8-8.2 43.2-13.7-6.7-31.1-6.5-43.8 2.3-6.9 5-12.7 11.6-16.3 19.4-9.1 18.4-11.1 39.3-10.8 59.5 0 21.9.1 43.8-.1 65.7-15.5.2-31 .5-46.4.4 0-63.6 0-127.1 0-190.7 15.5-.1 31.1 0 46.6 0 .2 10.4.2 20.9 0 31.4z"/><path d="m326 548.4c15.8 0 31.7-.1 47.5.1 11.1 42.8 22.1 85.7 33.6 128.4 2.8-5.5 3.6-11.6 5.2-17.5 9.3-36.9 18.3-74 27.6-110.9 14.3-.3 28.7 0 43-.2 11.2 42.8 21.2 86 32.1 128.9 3.3-5.5 3.8-12.1 5.6-18.2 10-36.8 18.8-74 29.3-110.7 15.4.5 30.8-.6 46.2-.3-19.4 61.6-39.5 123.1-58.9 184.7-.9 2.3-1.3 6.4-4.9 5.7-12.5 0-24.9.2-37.4-.2-2.4-1.6-2.2-5-3.2-7.4-10.2-38.5-20.1-77.1-31.1-115.4-10.4 41.2-22 82.1-32.6 123.3-13.9.4-27.7 0-41.6.2-20-63.5-40.8-126.8-60.4-190.5z"/><path d="m665 548c14.8 0 29.6-.3 44.4.2 10 43.1 20.9 86 31.4 129 1.3-2.7 2.3-5.6 3-8.6 10.2-40.1 20.7-80.2 30.7-120.4 15.8-.6 31.7-.1 47.6-.2-20.3 63.7-40.3 127.4-61 191-13.4-.3-26.8 0-40.2-.1-2.1-1.4-2-4.4-2.9-6.6-9.8-38.6-20.5-76.9-30.5-115.4-3 7.1-4.6 14.7-6.6 22.1-8.9 33.3-17.8 66.6-26.7 99.8-13.9 0-27.8.1-41.7 0-7.6-26.2-16.5-52-24.1-78.1 5.5-19.3 11.9-38.4 18-57.6 9.6 25 17.4 50.7 27.3 75.5 10.2-43.6 20.9-87 31.3-130.6z"/><path d="m890.8 548.1c14.8-.3 29.6-.2 44.4 0 10.3 43 20.8 86 31.5 128.9 2.2-4.4 3.4-9.3 4.6-14 9.8-38.4 19.9-76.7 29.8-115 15.5 0 31.1-.1 46.6 0-9.9 33-20.9 65.8-31.1 98.7-10.1 30.7-19.3 61.7-29.8 92.3-13.6-.4-27.3-.2-40.9-.1-11.4-40.6-21.1-81.8-33-122.2-11.4 40.6-21.5 81.7-33.1 122.2-13.6-.1-27.2-.3-40.7.1-8.2-23.1-14.5-46.8-22.4-70.1-1.1-3.9-3.2-8-1.4-12 5.9-17.8 11.1-35.9 17-53.6 10.2 24.2 16.7 50 27.3 74 10.7-43 21.1-86 31.2-129.2z"/><path d="m1814.8 677.7c12.1-2.6 25.8 2.2 32.7 12.7 9.3 13.5 6.4 34.5-7.5 43.8-14.8 11-39.1 6-47-11.1-9.2-17.6 1.4-42.5 21.8-45.4z"/></g></svg>