<svg viewBox="0 0 2000 881.8" xmlns="http://www.w3.org/2000/svg"><g fill="#fff"><path d="m182.6 315c29.7-.1 59.4.1 89-.1-21 20-41.2 40.8-61.9 61.2-9.3 8.6-17.7 18.1-27.2 26.5 29 29 58.2 57.7 87.2 86.6.8.6 1.6 2.1.4 2.8-11.8 11.7-23.6 23.4-35.6 34.8-2.4 2.3-4.5 5-7.3 6.9-10.8-9.2-20.5-19.7-30.7-29.5-11.6-11.7-23.6-23-35.4-34.6-22.7-22-44.7-44.8-67.4-66.9v-.2c3.8-3.2 7.3-6.7 10.8-10.2 22-22.1 44.3-44 66.4-66 4.1-3.5 8-7.3 11.7-11.3z"/><path d="m209.7 402.5c14.4-14.2 28.7-28.6 42.9-43 4.4 3.1 7.9 7.3 11.8 11 31.2 30.1 61.4 61.3 92.5 91.5 9.9 9.4 19.5 19.2 29.3 28.8-26.4 26.3-52.5 52.8-79.5 78.5-3.2 3.1-6.4 6.3-9.5 9.5-29.6 0-59.2 0-88.8 0 9.4-9 18.3-18.6 27.9-27.4 20.3-20.3 40.7-40.3 61-60.6-26.7-27-53.6-53.7-80.4-80.5-2.4-2.5-5.3-4.7-7.2-7.8z"/><path d="m498.3 403.3c-13.3 0-23.8 4.4-31.5 13.3s-11.6 21-11.6 36.4c0 15.8 3.7 28.1 11.1 36.7s18 13 31.8 13c8.4 0 18.1-1.5 28.9-4.6v12.3c-8.4 3.1-18.7 4.7-31.1 4.7-17.8 0-31.6-5.4-41.3-16.2s-14.5-26.2-14.5-46.1c0-12.5 2.3-23.4 7-32.8s11.4-16.6 20.2-21.7 19.2-7.6 31.1-7.6c12.7 0 23.8 2.3 33.3 7l-6 12.1c-9.1-4.4-18.2-6.5-27.4-6.5z"/><path d="m621.8 481.3c0 10.7-3.9 19-11.6 24.9-7.7 6-18.2 8.9-31.5 8.9-14.4 0-25.4-1.8-33.1-5.5v-13.6c5 2.1 10.4 3.8 16.2 5 5.9 1.2 11.7 1.8 17.4 1.8 9.4 0 16.5-1.8 21.2-5.3 4.7-3.6 7.1-8.5 7.1-14.9 0-4.2-.8-7.6-2.5-10.3s-4.5-5.1-8.4-7.4-10-4.8-18-7.7c-11.3-4-19.3-8.8-24.1-14.3s-7.2-12.7-7.2-21.6c0-9.3 3.5-16.8 10.5-22.3s16.3-8.3 27.8-8.3c12 0 23.1 2.2 33.2 6.6l-4.4 12.3c-10-4.2-19.7-6.3-29.2-6.3-7.5 0-13.3 1.6-17.5 4.8s-6.3 7.6-6.3 13.3c0 4.2.8 7.6 2.3 10.3s4.2 5.1 7.8 7.4c3.7 2.2 9.3 4.7 16.9 7.4 12.7 4.5 21.4 9.4 26.2 14.6s7.2 11.9 7.2 20.2z"/><path d="m714.9 481.3c0 10.7-3.9 19-11.6 24.9-7.7 6-18.2 8.9-31.5 8.9-14.4 0-25.4-1.8-33.1-5.5v-13.6c5 2.1 10.4 3.8 16.2 5 5.9 1.2 11.7 1.8 17.4 1.8 9.4 0 16.5-1.8 21.2-5.3 4.7-3.6 7.1-8.5 7.1-14.9 0-4.2-.8-7.6-2.5-10.3s-4.5-5.1-8.4-7.4-10-4.8-18-7.7c-11.3-4-19.3-8.8-24.1-14.3s-7.2-12.7-7.2-21.6c0-9.3 3.5-16.8 10.5-22.3s16.3-8.3 27.8-8.3c12 0 23.1 2.2 33.2 6.6l-4.4 12.3c-10-4.2-19.7-6.3-29.2-6.3-7.5 0-13.3 1.6-17.5 4.8s-6.3 7.6-6.3 13.3c0 4.2.8 7.6 2.3 10.3s4.2 5.1 7.8 7.4c3.7 2.2 9.3 4.7 16.9 7.4 12.7 4.5 21.4 9.4 26.2 14.6s7.2 11.9 7.2 20.2z"/><path d="m838.9 450.4c0 20.2-5.6 35.8-16.7 46.7s-26.8 16.4-46.9 16.4h-39.2v-121.1h41.9c19.4 0 34.4 5 45 14.9 10.6 10 15.9 24.3 15.9 43.1zm-33.9 1.1c0-11.1-2.2-19.3-6.6-24.7s-11.1-8-20-8h-9.5v67.8h7.3c9.9 0 17.2-2.9 21.9-8.7 4.5-5.7 6.9-14.5 6.9-26.4z"/><path d="m904 515.2c-15.6 0-27.8-4.2-36.4-12.5s-13-20.1-13-35.5c0-15.8 4-28 12-36.5s19.4-12.7 34.3-12.7c14.1 0 25.1 3.7 32.8 11.1s11.6 18 11.6 31.8v14.4h-57.9c.2 5.2 2.1 9.4 5.8 12.3 3.6 3 8.5 4.5 14.8 4.5 5.7 0 10.9-.5 15.7-1.6s10-2.9 15.5-5.5v23.3c-5.1 2.6-10.3 4.4-15.7 5.4-5.5 1-12 1.5-19.5 1.5zm-1.9-75.2c-3.8 0-7 1.2-9.6 3.6s-4.1 6.2-4.5 11.3h27.8c-.1-4.5-1.4-8.1-3.9-10.9-2.3-2.6-5.6-4-9.8-4z"/><path d="m1036.1 484.7c0 10.1-3.4 17.6-10.3 22.8-6.8 5.1-16.7 7.7-29.5 7.7-7 0-13-.4-18.1-1.1s-10.4-2.1-15.7-4.1v-26c5 2.2 10.5 4 16.5 5.5 6 1.4 11.3 2.2 16 2.2 7 0 10.5-1.6 10.5-4.8 0-1.7-1-3.1-2.9-4.4-2-1.3-7.7-3.8-17.1-7.6-8.6-3.5-14.6-7.6-18.1-12.1-3.4-4.5-5.1-10.2-5.1-17.1 0-8.7 3.4-15.5 10.1-20.4s16.3-7.3 28.6-7.3c6.2 0 12 .7 17.4 2 5.4 1.4 11.1 3.3 16.9 5.9l-8.8 20.9c-4.3-1.9-8.9-3.6-13.7-4.9-4.8-1.4-8.7-2-11.8-2-5.3 0-8 1.3-8 3.9 0 1.6.9 3 2.8 4.1 1.8 1.1 7.2 3.4 16 6.9 6.6 2.7 11.5 5.4 14.7 8s5.6 5.6 7.1 9.2c1.7 3.4 2.5 7.7 2.5 12.7z"/><path d="m1053.4 396.3c0-4.9 1.4-8.5 4.1-10.9s7.1-3.6 13.1-3.6 10.4 1.2 13.2 3.6 4.1 6 4.1 10.8c0 9.5-5.8 14.2-17.3 14.2-11.5.1-17.2-4.6-17.2-14.1zm33.2 117.2h-32.4v-93.8h32.4z"/><path d="m1197.7 419.7v15.7l-12.8 4.7c1.8 3.2 2.7 6.9 2.7 11.2 0 10.1-3.5 17.9-10.6 23.5s-17.7 8.4-31.8 8.4c-3.5 0-6.2-.2-8.3-.7-.8 1.4-1.2 2.8-1.2 4.1 0 1.6 1.3 2.8 3.9 3.7s6 1.3 10.2 1.3h15.6c21 0 31.6 8.9 31.6 26.6 0 11.4-4.9 20.3-14.6 26.7-9.7 6.3-23.4 9.5-41 9.5-13.3 0-23.6-2.2-30.8-6.7-7.2-4.4-10.8-10.8-10.8-19.2 0-11.2 7-18.4 20.9-21.7-2.9-1.2-5.4-3.2-7.5-5.9s-3.2-5.4-3.2-8c0-2.9.8-5.5 2.4-7.7s4.9-4.9 10-8c-4.9-2.2-8.7-5.5-11.5-10.1s-4.2-10.2-4.2-16.7c0-10.2 3.5-18.1 10.4-23.8 7-5.6 16.9-8.4 29.8-8.4 1.7 0 4.7.2 8.9.6s7.3.7 9.3 1.1h32.6zm-70.7 105.5c0 2.7 1.4 4.8 4.3 6.4s6.7 2.4 11.5 2.4c7.8 0 14.1-1 18.8-2.9 4.7-2 7.1-4.5 7.1-7.6 0-2.5-1.4-4.2-4.3-5.3-2.9-1-7-1.5-12.3-1.5h-12.7c-3.5 0-6.4.8-8.8 2.4-2.4 1.7-3.6 3.7-3.6 6.1zm10.2-74.8c0 9.6 3.3 14.4 10 14.4 3.1 0 5.5-1.2 7.2-3.6s2.5-5.9 2.5-10.7c0-9.7-3.2-14.6-9.7-14.6-6.7.1-10 4.9-10 14.5z"/><path d="m1271.2 513.5v-51.2c0-6.2-.9-10.9-2.7-14.1s-4.7-4.8-8.7-4.8c-5.5 0-9.4 2.2-11.8 6.5-2.4 4.4-3.6 11.8-3.6 22.4v41.1h-32.4v-93.8h24.4l4.1 11.6h1.9c2.8-4.4 6.6-7.7 11.5-9.9s10.5-3.3 16.9-3.3c10.4 0 18.5 3 24.2 9 5.8 6 8.7 14.5 8.7 25.4v61h-32.5z"/><path d="m1407.2 513.5-15.1-38.5h-48.5l-14.9 38.5h-14.2l47.9-121.6h11.8l47.6 121.6zm-19.4-51.2-14.1-37.5c-1.8-4.7-3.7-10.6-5.6-17.5-1.2 5.3-3 11.1-5.2 17.5l-14.2 37.5z"/><path d="m1510.5 513.5-16.6-53.3c-1-3.3-3-10.7-5.9-22.2h-.7c-2.2 9.7-4.1 17.1-5.8 22.4l-17.1 53.1h-15.9l-24.8-90.8h14.4c5.9 22.8 10.3 40.2 13.4 52.1s4.8 20 5.3 24.1h.7c.6-3.1 1.6-7.2 2.9-12.2 1.4-5 2.5-9 3.5-11.9l16.6-52.1h14.9l16.2 52.1c3.1 9.5 5.2 17.5 6.3 23.9h.7c.2-2 .8-5.1 1.8-9.2s6.7-26.4 17.3-66.8h14.2l-25.1 90.8z"/><path d="m1624.2 513.5-2.7-12.9h-.7c-4.5 5.7-9 9.5-13.5 11.6-4.5 2-10.1 3-16.9 3-9 0-16.1-2.3-21.2-7-5.1-4.6-7.7-11.2-7.7-19.8 0-18.3 14.7-27.9 44-28.8l15.4-.5v-5.6c0-7.1-1.5-12.4-4.6-15.8s-8-5.1-14.7-5.1c-7.6 0-16.1 2.3-25.7 7l-4.2-10.5c4.5-2.4 9.4-4.3 14.7-5.7s10.7-2.1 16-2.1c10.8 0 18.8 2.4 24.1 7.2 5.2 4.8 7.8 12.5 7.8 23.1v62h-10.1zm-31.1-9.7c8.6 0 15.3-2.3 20.2-7s7.3-11.3 7.3-19.7v-8.2l-13.8.6c-10.9.4-18.8 2.1-23.6 5.1s-7.2 7.7-7.2 14c0 5 1.5 8.8 4.5 11.3 3 2.6 7.2 3.9 12.6 3.9z"/><path d="m1704.1 421.1c4 0 7.6.3 10.9 1l-1.9 12.8c-3.8-.8-7.1-1.2-9.9-1.2-7.3 0-13.6 3-18.8 8.9-5.2 6-7.8 13.4-7.8 22.3v48.7h-13.7v-90.8h11.3l1.6 16.8h.7c3.4-5.9 7.4-10.5 12.2-13.7 4.5-3.2 9.7-4.8 15.4-4.8z"/><path d="m1793.7 501.3h-.7c-6.4 9.2-15.8 13.8-28.5 13.8-11.9 0-21.1-4.1-27.7-12.2s-9.9-19.7-9.9-34.6c0-15 3.3-26.6 9.9-34.9s15.8-12.4 27.7-12.4c12.3 0 21.8 4.5 28.3 13.4h1.1l-.6-6.5-.3-6.4v-36.9h13.7v128.9h-11.2zm-27.5 2.3c9.4 0 16.2-2.6 20.4-7.7s6.3-13.3 6.3-24.7v-2.9c0-12.9-2.1-22-6.4-27.5s-11.1-8.2-20.5-8.2c-8.1 0-14.2 3.1-18.5 9.4s-6.4 15.1-6.4 26.5c0 11.6 2.1 20.3 6.4 26.3 4.2 5.9 10.5 8.8 18.7 8.8z"/><path d="m1894.4 488.7c0 8.4-3.1 15-9.4 19.5-6.3 4.6-15.1 6.9-26.5 6.9-12 0-21.4-1.9-28.2-5.7v-12.8c4.4 2.2 9 3.9 14 5.2s9.8 1.9 14.5 1.9c7.2 0 12.7-1.1 16.6-3.4s5.8-5.8 5.8-10.5c0-3.5-1.5-6.6-4.6-9.1s-9-5.5-17.9-8.9c-8.4-3.1-14.5-5.9-18-8.2-3.6-2.3-6.2-5-8-8-1.7-3-2.6-6.5-2.6-10.7 0-7.4 3-13.2 9-17.5s14.3-6.4 24.8-6.4c9.8 0 19.3 2 28.7 6l-4.9 11.2c-9.1-3.8-17.4-5.6-24.8-5.6-6.5 0-11.4 1-14.7 3.1-3.3 2-5 4.9-5 8.4 0 2.4.6 4.5 1.9 6.2 1.2 1.7 3.2 3.3 6 4.9 2.8 1.5 8.1 3.8 15.9 6.7 10.8 3.9 18 7.9 21.8 11.8 3.7 4 5.6 9 5.6 15z"/></g></svg>