<svg enable-background="new 0 0 1837.8 335" viewBox="0 0 1837.8 335" xmlns="http://www.w3.org/2000/svg"><g fill="#fff"><path d="m0 0c30.7 23.6 60.5 48.4 87.8 75.9 12.1 12.2 23.8 25 33.9 38.9 2.9 4 6.1 7.8 8.1 12.3-12.8-12.2-26.4-23.8-42.4-31.6-5-2.4-10.2-4.7-15.8-5.6 6.9 12.9 11.6 27.9 8.7 42.6-2.5 15.4-11.8 28.7-22.9 39.3 18.5 10 33.9 24.8 46.8 41.3 13.1 16.6 23.7 35 33.2 53.8 3.5 0 7 .1 10.4-.1 14.9-30.1 33.4-59.3 59.3-81.2 6.2-5.4 13.3-9.6 20.3-13.9-10.4-10.3-19.5-22.7-22.3-37.4-3.5-15.5 1.1-31.5 8.7-45.1-16.6 4.9-31.5 14.3-44.7 25.4-5.1 3.8-9 9-14.3 12.6 10.4-16.7 23.4-31.5 36.9-45.7 18.6-19 38.2-37 58.7-53.9 11.1-9.4 22.8-18.1 34-27.4-1.1 3.5-3.8 6.1-5.9 8.9-12.5 16.7-23.8 34.3-33.6 52.7-9.2 17.8-17.2 36.6-20.3 56.5-.6 7.4-.9 15.2 2.3 22.1 6.7 16.2 21.7 27.6 37.5 34.3-.1.5-.2.9-.2 1.4-5.2.5-10 2.7-14.8 4.6-14.8 6.2-27.9 15.8-39 27.2-22.3 23.7-38.3 52.5-51.1 82.2-5.6 12.5-9.8 25.6-14.1 38.6-.7 2.2-1.6 4.4-2.9 6.3-4.5-12.5-8.3-25.2-13.3-37.5-13.2-32.3-30-63.8-54.1-89.4-14.9-15.8-33.9-27.2-54.8-33 16-7 31.6-18.4 38.3-35.1 4.5-10.7 2.5-22.6-.2-33.4-6.4-24.5-18.4-47.1-31.6-68.6-6.8-10.5-13.7-21-21.4-30.8-2-2.2-3.7-4.6-5.2-7.2z"/><path d="m1481.3 38.9c22-2.5 44.9-.1 65.3 9.1 18.1 8 33.7 20.6 45.3 36.6 15.7 21.5 23.6 48.1 23.8 74.5.6 22.3-3.8 45-14.1 64.9-9.6 19.1-24.4 35-42.6 46.1-39.8 23.3-89.4 22.1-128.1-3-18.9-12.6-33.5-31.3-42.4-52.2-10-23.8-12.2-50.4-8.4-75.8 3.2-21.5 12-41.8 25.6-58.7 18.8-23.2 45.9-38.1 75.6-41.5zm8.1 35.7c-15.8 1.3-31.4 7.3-43.5 17.7-13.9 12-22.4 29.3-25.8 47.2-3.6 20-2.8 41.2 4.2 60.5 6.3 17.3 18.4 32.7 34.9 41.2 19.1 10.1 42.2 11.4 62.7 5.5 17-5.2 31.6-16.5 40.7-31.8 12.5-20.6 15.3-45.7 12.3-69.3-2.7-21.2-12.5-42.1-29.5-55.5-15.6-12.5-36.3-17.3-56-15.5z"/><path d="m393.6 40.9h42.4c13.9 65.7 27.5 131.5 41.5 197.2.9-1.9 1.5-3.8 2-5.8 16.9-63.8 34.1-127.5 50.9-191.4 14.3-.1 28.6 0 42.9 0 13.9 53.1 28.3 106 42.3 159.1 3.6 12.7 6.4 25.7 10.6 38.2 14-65.7 27.6-131.5 41.5-197.2h42.4c-19.9 80.9-39.8 161.8-59.8 242.8l-.8.5c-15.6.2-31.3.2-46.9-.1-16.6-62.4-33.6-124.6-50.2-186.9-.2 0-.7-.1-.9-.1-16.6 62.4-33.4 124.8-50.4 187.2-15.8-.2-31.7.2-47.5-.2-20-81.2-40-162.3-60-243.3z"/><path d="m744.8 40.9c12.9 0 25.7-.1 38.6 0-.1 81.1-.1 162.2 0 243.3-12.9.2-25.7 0-38.6.1z"/><path d="m831.3 40.9h60.6c21.7.1 44.2-1.3 64.7 6.8 17.6 6.7 31.5 20.7 38.1 38.3 5.3 14.4 6 30.3 3.4 45.4-3.1 18-13.8 33.7-29.5 43.1-9.3 5.7-19.9 8.8-30.6 10.8 20.9 33 41.9 66 62.9 98.9-13.2.2-26.5 0-39.7.1-1.5-.2-3.6.5-4.4-1.3-18.5-30.1-37-60.1-55.5-90.1-1.3-2-2.3-4.4-4.2-6-9-.2-18.1.1-27.1-.1-.3 32.4-.1 64.9-.1 97.3-12.9.2-25.7 0-38.6.1zm38.6 33.7c-.1 28.2 0 56.3 0 84.5h37.9c15 .4 32.2-1.1 42.8-13 7.4-8.2 9.5-19.6 9.3-30.3 0-11.2-3.6-23.1-12.2-30.8-8.9-8.2-21.5-10.2-33.1-10.5-14.9.1-29.8.1-44.7.1z"/><path d="m1034.8 40.9h137.2v31.8h-98.6c0 24.6-.1 49.2 0 73.7h88.4v30.2c-29.4 0-58.9.1-88.3-.1-.2 25.2-.1 50.5-.1 75.7h98.6v32h-137.2z"/><path d="m1210 40.9h141.6v31.8h-103v75.5c28.4.1 56.7-.1 85.1.1-.2 10.1 0 20.1-.1 30.2h-85c0 35.2-.1 70.5 0 105.7-12.9.2-25.7.1-38.6.1z"/><path d="m1636.6 40.9c14.1-.1 28.2 0 42.3 0 1.4.2 3.7-.5 4.5 1.1 18.6 29 37.1 58.2 55.9 87.1 17.2-29.3 34.1-58.8 51.1-88.2h44.4c-24.3 40.1-48.7 80.2-73.2 120.3-1.1 1.1-.7 2.5.2 3.6 25.4 39.8 50.7 79.6 76 119.4-15.4.1-30.8.1-46.2 0-19-30.1-38.3-60-57.5-90-17.3 29.8-34.2 59.8-51.3 89.6-14.8.9-29.7.2-44.5.3 24.7-41.4 49.5-82.7 74.4-124-25.3-39.7-50.8-79.4-76.1-119.2z"/><path d="m82.3 169.6c8.7 2.6 16.8 6.6 24.3 11.7 4.4 3.2 8.9 7.9 8 13.8-5.3.7-10-2.4-14.1-5.3-7-5.8-13.1-12.6-18.2-20.2z"/><path d="m170.9 184.2c7.7-7.1 17.7-11 27.3-14.7-1.5 3.8-4.5 6.7-7 9.9-6.5 7.1-14.1 15.6-24.5 15.7-.6-4.1 1-8.3 4.2-10.9z"/></g></svg>